<svg width="256" height="256" viewBox="0 0 256 256" fill="none" xmlns="http://www.w3.org/2000/svg" role="img" aria-labelledby="title desc">
  <title id="title">Imponect Email</title>
  <desc id="desc">Email envelope logo with Imponect colors.</desc>
  <defs>
    <linearGradient id="bg" x1="38" y1="32" x2="218" y2="224" gradientUnits="userSpaceOnUse">
      <stop stop-color="#005580"/>
      <stop offset="1" stop-color="#001a26"/>
    </linearGradient>
    <linearGradient id="gold" x1="60" y1="73" x2="196" y2="190" gradientUnits="userSpaceOnUse">
      <stop stop-color="#d4a36a"/>
      <stop offset="1" stop-color="#c6893f"/>
    </linearGradient>
    <filter id="shadow" x="18" y="22" width="220" height="222" color-interpolation-filters="sRGB" filterUnits="userSpaceOnUse">
      <feFlood flood-opacity="0" result="BackgroundImageFix"/>
      <feColorMatrix in="SourceAlpha" result="hardAlpha" type="matrix" values="0 0 0 0 0 0 0 0 0 0 0 0 0 0 0 0 0 0 127 0"/>
      <feOffset dy="8"/>
      <feGaussianBlur stdDeviation="8"/>
      <feComposite in2="hardAlpha" operator="out"/>
      <feColorMatrix type="matrix" values="0 0 0 0 0 0 0 0 0 0.102 0 0 0 0 0.149 0 0 0 0.3 0"/>
      <feBlend in2="BackgroundImageFix" mode="normal" result="effect1_dropShadow_1_1"/>
      <feBlend in="SourceGraphic" in2="effect1_dropShadow_1_1" mode="normal" result="shape"/>
    </filter>
  </defs>

  <rect width="256" height="256" rx="52" fill="url(#bg)"/>
  <path d="M30 202C56 190 76 214 105 201C134 188 154 190 180 202C198 210 216 205 231 194" stroke="#d4a36a" stroke-linecap="round" stroke-width="12"/>
  <path d="M42 216C69 204 87 225 117 212C145 200 163 203 190 215C203 221 217 218 230 209" stroke="#005580" stroke-linecap="round" stroke-width="10"/>

  <g filter="url(#shadow)">
    <path d="M54 82C54 74.268 60.268 68 68 68H188C195.732 68 202 74.268 202 82V172C202 179.732 195.732 186 188 186H68C60.268 186 54 179.732 54 172V82Z" fill="url(#gold)"/>
    <path d="M58 82L121.973 132.724C126.082 135.982 131.918 135.982 136.027 132.724L200 82" stroke="#f9f3eb" stroke-linecap="round" stroke-linejoin="round" stroke-width="12"/>
    <path d="M58 176L105 122" stroke="#a06d32" stroke-linecap="round" stroke-width="8"/>
    <path d="M198 176L151 122" stroke="#a06d32" stroke-linecap="round" stroke-width="8"/>
    <path d="M54 85.5L121.973 139.724C126.082 142.982 131.918 142.982 136.027 139.724L202 85.5V173C202 180.18 196.18 186 189 186H67C59.82 186 54 180.18 54 173V85.5Z" fill="#c6893f"/>
    <path d="M58 86L121.973 136.724C126.082 139.982 131.918 139.982 136.027 136.724L200 86" stroke="#f9f3eb" stroke-linecap="round" stroke-linejoin="round" stroke-width="11"/>
    <path d="M65 173L108 126" stroke="#a06d32" stroke-linecap="round" stroke-width="8"/>
    <path d="M191 173L148 126" stroke="#a06d32" stroke-linecap="round" stroke-width="8"/>
  </g>

  <g>
    <circle cx="128" cy="126" r="33" fill="#00334d" stroke="#f9f3eb" stroke-width="8"/>
    <rect x="121" y="104" width="14" height="52" rx="4" fill="#f9f3eb"/>
    <rect x="118" y="90" width="20" height="12" rx="6" fill="#f9f3eb"/>
  </g>
</svg>
